<?xml version="1.0" encoding="utf-8"?>
<!-- Generator: Adobe Illustrator 27.5.0, SVG Export Plug-In . SVG Version: 6.00 Build 0)  -->
<svg version="1.1" xmlns="http://www.w3.org/2000/svg" xmlns:xlink="http://www.w3.org/1999/xlink" x="0px" y="0px"
	 viewBox="0 0 500 500" style="enable-background:new 0 0 500 500;" xml:space="preserve">
<g id="BACKGROUND">
	<rect style="fill:#FFFFFF;" width="500" height="500"/>
</g>
<g id="OBJECTS">
	<g>
		<g>
			<g>
				<g>
					<g>
						<path style="fill:#FFAD4A;stroke:#323954;stroke-linecap:round;stroke-linejoin:round;stroke-miterlimit:10;" d="
							M58.267,151.439l75.12,313.03c0.69,2.86,1.17,5.77,1.76,8.65c0.42,2.07,1.42,3.56,2.81,4.37l10.33,5.59
							c-0.12-0.08-0.24-0.15-0.34-0.24c-0.41-0.29-0.78-0.65-1.1-1.09c-0.07-0.09-0.14-0.19-0.2-0.3c-0.01,0-0.01,0-0.01-0.02
							c-0.16-0.22-0.31-0.49-0.43-0.76c-0.01-0.03-0.02-0.05-0.03-0.08c-0.12-0.23-0.2-0.46-0.29-0.72
							c-0.11-0.35-0.22-0.72-0.29-1.12c-0.05-0.21-0.07-0.42-0.09-0.64c0,0,0,0,0.01-0.01c-0.05-0.12-0.06-0.26-0.07-0.39
							c-0.02-0.16-0.04-0.32-0.03-0.5c-0.01-0.09-0.01-0.19-0.01-0.28c-0.01-0.13-0.02-0.26-0.02-0.39l-76.66-319.41
							c-1.69-7.05,0.05-14.6,5.01-19.89c1.23-1.32,2.59-2.44,4.01-3.26l125.27-72.38c0.22-0.13,0.46-0.25,0.68-0.37
							c0.26-0.13,0.53-0.26,0.79-0.36c1.67-0.7,3.21-0.84,4.53-0.52c0.31,0.07,0.61,0.19,0.9,0.32c0.08,0.04,0.16,0.08,0.24,0.12
							l-10.27-5.58c-1.88-1.08-4.48-0.93-7.35,0.72L67.298,128.3c-1.43,0.82-2.78,1.94-4.02,3.26
							C58.317,136.84,56.577,144.4,58.267,151.439z"/>
					</g>
					<g>
						<path style="fill:#FFAD4A;stroke:#323954;stroke-linecap:round;stroke-linejoin:round;stroke-miterlimit:10;" d="
							M67.911,148.018c-0.457,1.969-0.402,4.021,0.07,5.987l77.406,322.532c-0.004,0.13,0.006,0.263,0.016,0.395
							c0.002,0.088,0.002,0.189,0.018,0.279c-0.01,0.173,0.01,0.336,0.03,0.499c0.01,0.132,0.02,0.265,0.061,0.387
							c-0.002,0.014-0.002,0.014-0.002,0.014c0.012,0.22,0.041,0.428,0.083,0.638c0.073,0.403,0.181,0.768,0.291,1.118
							c0.094,0.261,0.177,0.491,0.289,0.725c0.01,0.031,0.022,0.047,0.033,0.077c0.136,0.267,0.275,0.52,0.43,0.76
							c-0.002,0.014-0.002,0.014,0.012,0.016c0.057,0.11,0.13,0.208,0.204,0.306c0.316,0.438,0.686,0.797,1.096,1.088
							c0.104,0.088,0.224,0.163,0.344,0.238l0.12,0.075c1.88,1.099,4.478,0.947,7.348-0.709l125.25-72.382
							c5.695-3.289,10.318-11.285,10.295-17.837L213.375,67.508c-0.015-3.349-1.237-5.692-3.215-6.718
							c-0.081-0.041-0.163-0.082-0.244-0.122c-0.287-0.128-0.591-0.245-0.9-0.318c-1.322-0.32-2.856-0.176-4.527,0.516
							c-0.263,0.108-0.528,0.23-0.795,0.367c-0.22,0.114-0.456,0.24-0.678,0.369l-125.264,72.38
							C73.127,136.652,69.208,142.437,67.911,148.018z"/>
					</g>
				</g>
				<g>
					<path style="fill:#323954;stroke:#323954;stroke-miterlimit:10;" d="M289.24,393.43c0.01,5.23-3.69,11.64-8.23,14.27
						l-125.26,72.38c-4.09,2.36-7.52,0.87-8.18-3.26c-0.2-1.29-0.38-2.59-0.68-3.87l-76.76-319.83c-0.61-2.55-0.5-5.24,0.42-7.7
						c1.41-3.73,4.11-7.28,7.2-9.07l125.26-72.38c4.55-2.62,8.28-0.49,8.29,4.73L289.24,393.43z"/>
				</g>
				<g>
					<path style="fill:#FFFFFF;stroke:#323954;stroke-linecap:round;stroke-linejoin:round;stroke-miterlimit:10;" d="
						M128.97,112.122c-0.016,0.002-0.034,0.009-0.05,0.011c-0.136,0.02-0.281,0.067-0.436,0.156c-0.17,0.098-0.332,0.232-0.479,0.39
						c-0.442,0.473-0.75,1.162-0.748,1.749c0,0.073,0.01,0.137,0.019,0.202c0.003,0.021,0.002,0.047,0.006,0.068
						c0.012,0.061,0.033,0.113,0.053,0.165c0.007,0.019,0.011,0.041,0.019,0.059c0.023,0.049,0.053,0.088,0.083,0.128
						c0.011,0.015,0.019,0.033,0.031,0.047c0.035,0.039,0.076,0.069,0.119,0.097c0.226,0.152,0.547,0.147,0.907-0.061
						c0.69-0.398,1.239-1.351,1.237-2.134C129.729,112.412,129.417,112.082,128.97,112.122z M143.266,102.814
						c-0.009-0.005-0.019-0.008-0.027-0.013c-0.047-0.025-0.095-0.049-0.145-0.068c-0.015-0.005-0.031-0.009-0.046-0.013
						c-0.046-0.016-0.093-0.031-0.142-0.041c-0.009-0.002-0.018-0.002-0.027-0.003c-0.056-0.01-0.113-0.018-0.173-0.021
						c-0.008,0-0.016,0.001-0.024,0.001c-0.339-0.012-0.725,0.093-1.136,0.33c-0.252,0.145-0.495,0.33-0.723,0.544
						c-0.076,0.071-0.151,0.146-0.223,0.223c-0.635,0.678-1.131,1.578-1.353,2.464c-0.012,0.047-0.023,0.094-0.033,0.141
						c-0.062,0.284-0.096,0.565-0.095,0.835c0.001,0.184,0.017,0.355,0.048,0.512c0.001,0.006,0.002,0.013,0.003,0.02
						c0.014,0.067,0.031,0.13,0.05,0.192c0.004,0.013,0.006,0.028,0.011,0.04c0.016,0.048,0.035,0.092,0.054,0.137
						c0.01,0.024,0.018,0.05,0.029,0.073c0.028,0.06,0.06,0.116,0.094,0.169c0.003,0.004,0.005,0.01,0.008,0.014
						c0.023,0.035,0.048,0.065,0.073,0.096c0.017,0.022,0.033,0.046,0.051,0.067c0.018,0.02,0.038,0.036,0.057,0.055
						c0.027,0.027,0.054,0.055,0.083,0.079c0.022,0.018,0.047,0.033,0.07,0.049c0.449,0.315,1.096,0.305,1.815-0.111
						c1.342-0.776,2.423-2.66,2.419-4.203C143.98,103.611,143.706,103.068,143.266,102.814z"/>
				</g>
				<g>
					<path style="fill:#FFFFFF;stroke:#323954;stroke-linecap:round;stroke-linejoin:round;stroke-miterlimit:10;" d="
						M77.763,138.728c-0.853,0.493-1.666,1.163-2.406,1.951c-2.992,3.19-4.007,7.763-2.986,12.016l77.149,321.461
						c0.013,3.931,2.809,5.513,6.22,3.542l125.26-72.377c3.412-1.971,6.188-6.773,6.175-10.704L209.243,69.892
						c-0.013-3.931-2.809-5.513-6.22-3.542l-24.074,13.91c-3.339,7.477-8.836,13.968-14.703,17.358l-47.651,27.533
						c-5.876,3.395-11.385,3.265-14.759-0.334L77.763,138.728z"/>
				</g>
			</g>
			<g>
				<g>
					<polygon style="fill:#FFAD4A;stroke:#323954;stroke-linecap:round;stroke-linejoin:round;stroke-miterlimit:10;" points="
						73.326,191.003 88.804,255.865 90.201,255.052 74.724,190.189 					"/>
				</g>
				<g>
					<polygon style="fill:#FFAD4A;stroke:#323954;stroke-linecap:round;stroke-linejoin:round;stroke-miterlimit:10;" points="
						68.461,188.171 83.939,253.033 88.804,255.865 73.326,191.003 					"/>
				</g>
				<g>
					<polygon style="fill:#FFAD4A;stroke:#323954;stroke-linecap:round;stroke-linejoin:round;stroke-miterlimit:10;" points="
						68.461,188.171 73.326,191.003 74.724,190.189 69.857,187.371 					"/>
				</g>
			</g>
			<g>
				<g>
					<polygon style="fill:#FFAD4A;stroke:#323954;stroke-linecap:round;stroke-linejoin:round;stroke-miterlimit:10;" points="
						91.211,266.142 95.017,281.536 96.414,280.723 92.609,265.329 					"/>
				</g>
				<g>
					<polygon style="fill:#FFAD4A;stroke:#323954;stroke-linecap:round;stroke-linejoin:round;stroke-miterlimit:10;" points="
						86.347,263.31 90.152,278.704 95.017,281.536 91.211,266.142 					"/>
				</g>
				<g>
					<polygon style="fill:#FFAD4A;stroke:#323954;stroke-linecap:round;stroke-linejoin:round;stroke-miterlimit:10;" points="
						86.347,263.31 91.211,266.142 92.609,265.329 87.742,262.51 					"/>
				</g>
			</g>
		</g>
		<g>
			<g>
				<path style="fill:#FFAD4A;" d="M126.573,246.316l7.582,31.578c1.535,6.414,8.857,9.478,14.504,6.081l24.296-14.617
					c3.644-2.196,5.447-6.494,4.459-10.633l-7.582-31.578c-1.542-6.414-8.864-9.478-14.511-6.081l-24.296,14.618
					C127.381,237.879,125.579,242.178,126.573,246.316z"/>
			</g>
			<g>
				<path style="fill:#B8C0C9;" d="M111.046,193.299l7.582,31.578c1.535,6.414,8.857,9.478,14.504,6.081l24.296-14.617
					c3.644-2.196,5.447-6.494,4.459-10.633l-7.582-31.578c-1.542-6.414-8.864-9.478-14.511-6.081l-24.296,14.618
					C111.854,184.862,110.052,189.161,111.046,193.299z"/>
			</g>
			<g>
				<path style="fill:#FFAD4A;" d="M156.038,169.701l7.582,31.578c1.535,6.414,8.857,9.478,14.504,6.081l24.296-14.617
					c3.644-2.196,5.447-6.494,4.459-10.633l-7.582-31.578c-1.542-6.414-8.864-9.478-14.511-6.081l-24.296,14.618
					C156.846,161.264,155.044,165.563,156.038,169.701z"/>
			</g>
		</g>
	</g>
	<g>
		<g>
			<g style="enable-background:new    ;">
				<g>
					<path style="fill:#FFFFFF;stroke:#323954;stroke-linecap:round;stroke-linejoin:round;stroke-miterlimit:10;" d="
						M137.097,346.187v2.024c0,0.452,0.022,0.883,0.043,1.292l0.065,0.775c0.065,0.668,0.151,1.314,0.28,1.917
						c0.065,0.302,0.129,0.603,0.215,0.883c0.065,0.301,0.151,0.581,0.237,0.861c0.129,0.431,0.28,0.818,0.431,1.184
						c0.129,0.258,0.237,0.495,0.323,0.711c0.883,1.723,2.089,3.058,3.532,3.962l0.237,0.151c3.338,1.938,7.946,1.68,13.028-1.249
						l9.066-5.233l36.673-21.19l34.347-19.833l18.778-10.853l17.917-10.336l18.778-10.832l17.83-10.293l20.845-12.038
						c10.078-5.814,18.304-20.048,18.261-31.634v-2.024c0-5.771-2.067-9.841-5.384-11.758c-0.022-0.022-0.065-0.022-0.086-0.043
						c0,0-0.022,0-0.043-0.022c-0.301-0.172-0.624-0.323-0.947-0.452H341.5c-0.065-0.022-0.108-0.043-0.172-0.065
						c-0.172-0.086-0.344-0.129-0.517-0.172c-0.043-0.021-0.065-0.021-0.108-0.021c-0.086-0.043-0.172-0.065-0.258-0.086
						c-0.043-0.043-0.108-0.065-0.151-0.065c-0.302-0.065-0.603-0.129-0.905-0.151c-0.043-0.022-0.065-0.022-0.108-0.022
						c-0.215-0.043-0.431-0.065-0.668-0.065c-0.065-0.021-0.151-0.021-0.237-0.021c-0.388-0.022-0.775-0.043-1.184,0
						c-0.151-0.022-0.302,0-0.452,0.021h-0.086c-0.28,0.022-0.538,0.065-0.84,0.108c-0.323,0.043-0.646,0.108-0.969,0.194
						c-0.237,0.043-0.474,0.108-0.711,0.172c-0.194,0.043-0.366,0.108-0.56,0.172c-0.28,0.086-0.56,0.172-0.84,0.301
						c-0.323,0.108-0.646,0.237-0.969,0.388c-0.711,0.302-1.443,0.668-2.175,1.098l-18.563,10.724l-0.646,0.366l-35.941,20.737
						l-0.646,0.388l-36.07,20.824l-0.646,0.366l-33.701,19.467l-0.646,0.366l-36.048,20.802l-0.668,0.388l-10.659,6.159
						C145.28,320.346,137.054,334.601,137.097,346.187z"/>
				</g>
				<g>
					<path style="fill:#FFFFFF;stroke:#323954;stroke-linecap:round;stroke-linejoin:round;stroke-miterlimit:10;" d="
						M129.244,341.711v2.024c0.021,5.75,2.067,9.82,5.362,11.736l7.616,4.325c-1.443-0.905-2.649-2.24-3.532-3.962
						c-0.086-0.215-0.194-0.452-0.323-0.711c-0.151-0.366-0.302-0.754-0.431-1.184c-0.086-0.28-0.172-0.56-0.237-0.861
						c-0.086-0.28-0.151-0.581-0.215-0.883c-0.129-0.603-0.215-1.249-0.28-1.917l-0.065-0.775c-0.022-0.409-0.043-0.84-0.043-1.292
						v-2.024c-0.043-11.585,8.183-25.841,18.261-31.655l10.659-6.159l0.668-0.388l36.048-20.802l0.646-0.366l33.701-19.467
						l0.646-0.366l36.07-20.824l0.646-0.388l35.941-20.737l0.646-0.366l18.563-10.724c0.732-0.431,1.464-0.797,2.175-1.098
						c0.323-0.151,0.646-0.28,0.969-0.388c0.28-0.129,0.56-0.215,0.84-0.301c0.194-0.065,0.366-0.129,0.56-0.172
						c0.237-0.065,0.474-0.129,0.711-0.172c0.323-0.086,0.646-0.151,0.969-0.194c0.28-0.065,0.56-0.108,0.84-0.108h0.086
						c0.151-0.021,0.302-0.043,0.452-0.021c0.409-0.043,0.818-0.043,1.184,0c0.086,0,0.172,0,0.237,0.021
						c0.215-0.021,0.452,0,0.668,0.065c0.043,0,0.065,0,0.108,0.022c0.302,0.022,0.603,0.086,0.905,0.151
						c0.043,0,0.108,0.021,0.151,0.065c0.086,0.022,0.172,0.043,0.258,0.086c0.043,0,0.065,0,0.108,0.021
						c0.172,0.043,0.344,0.086,0.517,0.172c0.065,0.022,0.108,0.043,0.172,0.065h0.022c0.323,0.129,0.646,0.28,0.947,0.452
						l-7.702-4.39c-3.338-1.938-7.946-1.68-13.028,1.249L147.505,310.055C137.427,315.87,129.201,330.125,129.244,341.711z"/>
				</g>
				<g>
					<polygon style="fill:#FFAD4A;" points="171.447,310.751 166.79,324.374 156.304,332.185 163.918,336.303 162.164,349.341 
						171.525,338.256 180.932,338.506 179.096,327.539 186.662,314.658 176.166,318.961 					"/>
				</g>
				<g>
					<polygon style="fill:#B8C0C9;" points="315.783,227.419 311.125,241.042 300.64,248.852 308.253,252.97 306.5,266.009 
						315.861,254.924 325.267,255.174 323.432,244.207 330.998,231.325 320.502,235.629 					"/>
				</g>
				<g>
					<polygon style="fill:#B8C0C9;" points="279.197,248.541 274.526,262.173 264.054,269.975 271.668,274.093 269.901,287.14 
						279.275,276.047 288.668,276.305 286.846,265.33 294.412,252.448 283.916,256.751 					"/>
				</g>
				<g>
					<polygon style="fill:#B8C0C9;" points="242.488,269.736 237.83,283.359 227.345,291.169 234.958,295.287 233.205,308.326 
						242.566,297.241 251.972,297.491 250.137,286.524 257.716,273.635 247.221,277.938 					"/>
				</g>
				<g>
					<polygon style="fill:#B8C0C9;" points="208.143,289.565 203.485,303.188 193,310.998 200.613,315.116 198.86,328.155 
						208.221,317.07 217.627,317.32 215.792,306.353 223.358,293.471 212.876,297.767 					"/>
				</g>
			</g>
		</g>
		<g>
			<g>
				<path style="fill:#FFAD4A;stroke:#323954;stroke-linecap:round;stroke-linejoin:round;stroke-miterlimit:10;" d="
					M194.669,233.479c0.028,12.4,8.813,17.39,19.601,11.163l17.488-10.092l-7.646,24.619l22.27-33.057l96.989-56.008
					c10.787-6.228,19.517-21.324,19.476-33.724c-0.028-12.4-8.813-17.404-19.601-11.177l-129.101,74.538
					C203.358,205.969,194.628,221.079,194.669,233.479z"/>
			</g>
			<g style="enable-background:new    ;">
				<g>
					<path style="fill:#B8C0C9;" d="M343.321,131.441c-4.021,2.321-7.258,7.919-7.245,12.529c0.008,2.907,1.302,4.723,3.259,5.085
						c-3.377,3.706-5.735,8.991-5.722,13.529l0.011,3.896c2.714,0.824,6.108,0.284,9.792-1.843c3.674-2.121,7.052-5.491,9.752-9.441
						l-0.011-3.896c-0.013-4.528-2.394-7.076-5.771-6.893c1.948-2.627,3.219-5.914,3.211-8.821
						C350.582,130.977,347.324,129.13,343.321,131.441z"/>
				</g>
				<g>
					<path style="fill:#FFFFFF;" d="M359.99,137.845c0.03,10.586-7.41,23.473-16.623,28.792c-9.213,5.319-16.701,1.051-16.731-9.535
						c-0.03-10.576,7.41-23.473,16.623-28.792C352.471,122.991,359.96,127.269,359.99,137.845z M333.623,166.48
						c2.714,0.824,6.108,0.284,9.792-1.843c3.674-2.121,7.052-5.491,9.752-9.441l-0.011-3.896c-0.013-4.528-2.394-7.076-5.771-6.893
						c1.948-2.627,3.219-5.914,3.211-8.821c-0.013-4.61-3.272-6.457-7.275-4.146c-4.021,2.321-7.258,7.919-7.245,12.529
						c0.008,2.907,1.302,4.723,3.259,5.085c-3.377,3.707-5.735,8.991-5.722,13.529L333.623,166.48"/>
				</g>
			</g>
			<g style="enable-background:new    ;">
				<g>
					<path style="fill:#FFFFFF;" d="M209.431,223.095c-0.604,0.348-1.09,1.191-1.088,1.885l0.002,0.836
						c0.002,0.694,0.492,0.983,1.095,0.634l111.165-64.181c0.604-0.348,1.099-1.207,1.097-1.9l-0.002-0.836
						c-0.002-0.694-0.501-0.967-1.104-0.619L209.431,223.095z"/>
				</g>
				<g>
					<path style="fill:#FFFFFF;" d="M209.407,214.559c-0.604,0.348-1.09,1.201-1.088,1.895l0.002,0.836
						c0.002,0.694,0.492,0.973,1.095,0.624l111.165-64.181c0.604-0.348,1.099-1.196,1.097-1.89l-0.002-0.836
						c-0.002-0.694-0.501-0.978-1.104-0.629L209.407,214.559z"/>
				</g>
			</g>
			<g>
				<path style="fill:#FFFFFF;" d="M236.294,216.125c-0.604,0.348-1.099,1.207-1.097,1.9l0.002,0.836
					c0.002,0.693,0.501,0.967,1.104,0.619l84.326-48.685c0.604-0.348,1.099-1.196,1.097-1.89l-0.002-0.836
					c-0.002-0.693-0.501-0.978-1.104-0.629L236.294,216.125z"/>
			</g>
		</g>
		<g>
			<g style="enable-background:new    ;">
				<g>
					<path style="fill:#FFAD4A;stroke:#323954;stroke-linecap:round;stroke-linejoin:round;stroke-miterlimit:10;" d="
						M98.57,443.707c0.042,12.4,8.813,17.418,19.601,11.177l129.101-74.538c10.801-6.228,19.517-21.338,19.49-33.738
						c-0.042-12.4-8.813-17.404-19.615-11.177l-96.989,56.008l9.759-25.828l-24.369,34.266l-17.502,10.092
						C107.258,416.211,98.542,431.307,98.57,443.707z"/>
				</g>
				<g>
					<path style="fill:#B8C0C9;" d="M246.13,342.604c-4.012,2.316-7.258,7.929-7.245,12.539c0.008,2.907,1.302,4.723,3.268,5.07
						c-3.385,3.722-5.735,9.001-5.722,13.529l0.011,3.906c2.705,0.829,6.099,0.289,9.783-1.838c3.674-2.121,7.052-5.491,9.752-9.441
						l-0.011-3.906c-0.013-4.518-2.394-7.066-5.771-6.893c1.948-2.616,3.228-5.909,3.22-8.816
						C253.401,342.145,250.133,340.293,246.13,342.604z"/>
				</g>
				<g>
					<path style="fill:#FFFFFF;" d="M262.799,349.018c0.03,10.586-7.41,23.473-16.623,28.792s-16.701,1.051-16.731-9.535
						c-0.03-10.586,7.41-23.473,16.623-28.792S262.769,338.431,262.799,349.018z M236.442,377.648
						c2.705,0.829,6.099,0.289,9.783-1.838c3.674-2.121,7.052-5.491,9.752-9.441l-0.011-3.906c-0.013-4.518-2.394-7.066-5.771-6.893
						c1.948-2.616,3.228-5.909,3.22-8.816c-0.013-4.61-3.281-6.462-7.284-4.151c-4.012,2.316-7.258,7.929-7.245,12.539
						c0.008,2.907,1.302,4.723,3.268,5.07c-3.385,3.722-5.735,9.001-5.722,13.529L236.442,377.648"/>
				</g>
				<g>
					<path style="fill:#FFFFFF;" d="M139.104,427.298c-0.604,0.348-1.099,1.207-1.097,1.89l0.002,0.836
						c0.002,0.694,0.501,0.978,1.104,0.629l84.335-48.691c0.604-0.348,1.09-1.201,1.088-1.895l-0.002-0.836
						c-0.002-0.683-0.492-0.973-1.095-0.624L139.104,427.298z"/>
				</g>
				<g>
					<path style="fill:#FFFFFF;" d="M112.225,425.726c-0.604,0.348-1.099,1.207-1.097,1.9l0.002,0.836
						c0.002,0.694,0.501,0.967,1.104,0.619L223.4,364.9c0.604-0.348,1.09-1.191,1.088-1.885l-0.002-0.836
						c-0.002-0.694-0.492-0.983-1.095-0.634L112.225,425.726z"/>
				</g>
			</g>
			<g>
				<path style="fill:#FFFFFF;" d="M112.249,434.263c-0.604,0.348-1.099,1.196-1.097,1.89l0.002,0.836
					c0.002,0.694,0.501,0.978,1.104,0.629l111.165-64.181c0.604-0.348,1.09-1.201,1.088-1.895l-0.002-0.836
					c-0.002-0.694-0.492-0.973-1.095-0.624L112.249,434.263z"/>
			</g>
		</g>
		<g>
			<g style="enable-background:new    ;">
				<g>
					<path style="fill:#FFFFFF;stroke:#323954;stroke-linecap:round;stroke-linejoin:round;stroke-miterlimit:10;" d="
						M216.561,165.022v1.322c0,0.295,0.014,0.577,0.028,0.844l0.042,0.506c0.042,0.436,0.098,0.858,0.183,1.252
						c0.042,0.197,0.084,0.394,0.141,0.577c0.042,0.197,0.098,0.38,0.155,0.563c0.084,0.281,0.183,0.534,0.281,0.774
						c0.084,0.169,0.155,0.324,0.211,0.464c0.577,1.125,1.364,1.997,2.307,2.588l0.155,0.098c2.18,1.266,5.19,1.097,8.509-0.816
						l5.921-3.418l23.952-13.839l22.433-12.953l12.264-7.088l11.702-6.751l12.264-7.074l11.645-6.723l13.614-7.862
						c6.582-3.797,11.955-13.094,11.927-20.661v-1.322c0-3.769-1.35-6.427-3.516-7.679c-0.014-0.014-0.042-0.014-0.056-0.028
						c0,0-0.014,0-0.028-0.014c-0.197-0.112-0.408-0.211-0.619-0.295h-0.014c-0.042-0.014-0.07-0.028-0.113-0.042
						c-0.113-0.056-0.225-0.084-0.338-0.113c-0.028-0.014-0.042-0.014-0.07-0.014c-0.056-0.028-0.113-0.042-0.169-0.056
						c-0.028-0.028-0.07-0.042-0.098-0.042c-0.197-0.042-0.394-0.084-0.591-0.098c-0.028-0.014-0.042-0.014-0.07-0.014
						c-0.141-0.028-0.281-0.042-0.436-0.042c-0.042-0.014-0.098-0.014-0.155-0.014c-0.253-0.014-0.506-0.028-0.774,0
						c-0.098-0.014-0.197,0-0.295,0.014h-0.056c-0.183,0.014-0.352,0.042-0.549,0.07c-0.211,0.028-0.422,0.07-0.633,0.127
						c-0.155,0.028-0.309,0.07-0.464,0.113c-0.127,0.028-0.239,0.07-0.366,0.113c-0.183,0.056-0.366,0.112-0.549,0.197
						c-0.211,0.07-0.422,0.155-0.633,0.253c-0.464,0.197-0.942,0.436-1.421,0.717l-12.124,7.004l-0.422,0.239l-23.474,13.544
						l-0.422,0.253l-23.558,13.6l-0.422,0.239l-22.011,12.714l-0.422,0.239l-23.544,13.586l-0.436,0.253l-6.962,4.022
						C221.906,148.145,216.533,157.455,216.561,165.022z"/>
				</g>
				<g>
					<path style="fill:#FFFFFF;stroke:#323954;stroke-linecap:round;stroke-linejoin:round;stroke-miterlimit:10;" d="
						M210.158,161.179v1.322c0.014,3.755,1.35,6.413,3.502,7.665l6.249,3.745c-0.942-0.591-1.73-1.463-2.307-2.588
						c-0.056-0.141-0.127-0.295-0.211-0.464c-0.098-0.239-0.197-0.492-0.281-0.774c-0.056-0.183-0.113-0.366-0.155-0.563
						c-0.056-0.183-0.098-0.38-0.141-0.577c-0.084-0.394-0.141-0.816-0.183-1.252l-0.042-0.506
						c-0.014-0.267-0.028-0.549-0.028-0.844v-1.322c-0.028-7.567,5.345-16.877,11.927-20.675l6.962-4.022l0.436-0.253l23.544-13.586
						l0.422-0.239l22.011-12.714l0.422-0.239l23.558-13.6l0.422-0.253l23.474-13.544l0.422-0.239l12.124-7.004
						c0.478-0.281,0.956-0.52,1.421-0.717c0.211-0.098,0.422-0.183,0.633-0.253c0.183-0.084,0.366-0.141,0.549-0.197
						c0.127-0.042,0.239-0.084,0.366-0.113c0.155-0.042,0.309-0.084,0.464-0.113c0.211-0.056,0.422-0.098,0.633-0.127
						c0.183-0.042,0.366-0.07,0.549-0.07h0.056c0.098-0.014,0.197-0.028,0.295-0.014c0.267-0.028,0.534-0.028,0.774,0
						c0.056,0,0.113,0,0.155,0.014c0.141-0.014,0.295,0,0.436,0.042c0.028,0,0.042,0,0.07,0.014
						c0.197,0.014,0.394,0.056,0.591,0.098c0.028,0,0.07,0.014,0.098,0.042c0.056,0.014,0.112,0.028,0.169,0.056
						c0.028,0,0.042,0,0.07,0.014c0.113,0.028,0.225,0.056,0.338,0.113c0.042,0.014,0.07,0.028,0.113,0.042h0.014
						c0.211,0.084,0.422,0.183,0.619,0.295l-6.305-3.787c-2.18-1.266-5.19-1.097-8.509,0.816l-113.796,65.695
						C215.502,144.301,210.129,153.612,210.158,161.179z"/>
				</g>
				<g>
					<polygon style="fill:#FFAD4A;" points="238.996,141.878 235.954,150.776 229.106,155.877 234.079,158.567 232.934,167.082 
						239.047,159.842 245.191,160.006 243.992,152.843 248.933,144.43 242.079,147.24 					"/>
				</g>
				<g>
					<polygon style="fill:#B8C0C9;" points="333.265,87.452 330.223,96.35 323.375,101.451 328.348,104.14 327.202,112.656 
						333.316,105.416 339.46,105.58 338.261,98.417 343.202,90.004 336.347,92.814 					"/>
				</g>
				<g>
					<polygon style="fill:#B8C0C9;" points="309.37,101.248 306.319,110.151 299.48,115.247 304.453,117.936 303.298,126.457 
						309.421,119.212 315.556,119.381 314.366,112.213 319.307,103.799 312.452,106.61 					"/>
				</g>
				<g>
					<polygon style="fill:#B8C0C9;" points="285.394,115.09 282.353,123.988 275.504,129.089 280.477,131.779 279.332,140.294 
						285.445,133.054 291.589,133.218 290.39,126.055 295.34,117.637 288.486,120.447 					"/>
				</g>
				<g>
					<polygon style="fill:#FFAD4A;" points="262.963,128.041 259.921,136.939 253.073,142.04 258.046,144.729 256.9,153.245 
						263.014,146.005 269.158,146.168 267.959,139.006 272.9,130.593 266.054,133.398 					"/>
				</g>
			</g>
		</g>
	</g>
	<g>
		<g>
			<g style="enable-background:new    ;">
				<g>
					
						<path style="fill:#FFAD4A;stroke:#323954;stroke-width:0.9581;stroke-linecap:round;stroke-linejoin:round;stroke-miterlimit:10;" d="
						M373.353,315.224c4.38,9.497,12.527,18.968,22.382,25.019c3.399,2.096,6.73,3.605,9.893,4.566
						c7.605,2.308,14.178,1.411,18.242-2.404l0.033-0.035c0.483-0.454,0.917-0.938,1.324-1.483c0.129-0.153,4.037-3.032,4.144-3.221
						c0.148-0.185-3.016,1.482-2.872,1.162c0.047-0.093,0.094-0.186,0.137-0.292c0.107-0.189,0.184-0.385,0.272-0.596
						c0.081-0.183,0.145-0.376,0.21-0.568c0.121-0.302,0.217-0.597,0.309-0.906c0.01-0.016,0.017-0.045,0.024-0.074
						c0.126-0.398,0.22-0.817,0.312-1.248c0.091-0.431,0.176-0.889,0.236-1.34c0.659-4.816-0.418-10.336-2.799-15.881
						c-4.234-9.873-12.635-19.845-22.874-26.136c-3.412-2.093-6.743-3.602-9.893-4.566c-1.957-0.598-3.851-0.979-5.641-1.151
						c-0.516-0.044-1.016-0.078-1.514-0.1c-0.743-0.019-1.476,0.001-2.178,0.041c-1.278,0.092-2.486,0.304-3.61,0.647
						c-0.295,0.082-0.575,0.175-0.864,0.283c-0.276,0.105-0.553,0.21-0.826,0.329c-0.273,0.118-0.531,0.246-0.788,0.374
						c-0.244,0.125-0.486,0.263-0.714,0.398c-0.049,0.025-0.098,0.05-0.131,0.085c-0.231,0.122-0.444,0.267-0.64,0.422
						c-0.238,0.151-0.471,0.328-0.687,0.515c-0.219,0.174-0.436,0.361-0.649,0.561c-2.176,2.051-3.627,4.931-4.128,8.602
						C369.368,303.365,370.625,309.308,373.353,315.224z"/>
					
						<path style="fill:#FFAD4A;stroke:#323954;stroke-width:0.9581;stroke-linecap:round;stroke-linejoin:round;stroke-miterlimit:10;" d="
						M383.099,286.011c0.702-0.04,1.435-0.06,2.178-0.041C384.519,285.941,383.798,285.958,383.099,286.011z"/>
				</g>
				<g>
					<path style="fill:#323954;" d="M383.408,294.099c-1.554,2.37-1.086,6.962,1.044,10.26c0.455,0.703,0.948,1.291,1.458,1.759
						c1.887,1.73,3.999,1.807,5.221-0.051L383.408,294.099z"/>
				</g>
				<g>
					<path style="fill:#323954;" d="M405.749,316.491c1.136,2.585,5.251,4.675,9.178,4.668c0.837-0.002,1.599-0.099,2.268-0.275
						c2.475-0.651,3.683-2.386,2.781-4.419L405.749,316.491z"/>
				</g>
				<g>
					
						<path style="fill:#FFAD4A;stroke:#323954;stroke-width:0.9581;stroke-linecap:round;stroke-linejoin:round;stroke-miterlimit:10;" d="
						M374.19,289.625c0.213-0.2,0.43-0.387,0.649-0.561c0.216-0.187,0.449-0.364,0.687-0.515c0.197-0.155,0.409-0.3,0.64-0.422
						c0.033-0.035,0.082-0.06,0.131-0.085c0.225-0.148,0.467-0.286,0.714-0.398c0.254-0.141,0.512-0.269,0.788-0.374
						c0.27-0.131,0.547-0.236,0.826-0.329c0.273-0.118,0.566-0.213,0.864-0.283c1.124-0.343,2.332-0.555,3.61-0.647
						c0.702-0.04,1.435-0.06,2.178-0.041c0.497,0.021,0.997,0.055,1.514,0.1c1.79,0.172,3.683,0.553,5.641,1.151
						c3.15,0.964,6.481,2.474,9.893,4.566c10.239,6.291,18.64,16.263,22.874,26.136c2.382,5.545,3.459,11.065,2.799,15.881
						c-0.059,0.451-0.144,0.909-0.236,1.34c-0.091,0.431-0.186,0.85-0.312,1.248c-0.007,0.029-0.014,0.058-0.024,0.074
						c-0.092,0.309-0.188,0.604-0.309,0.906c-0.065,0.193-0.129,0.386-0.21,0.568c-0.088,0.212-0.165,0.408-0.272,0.596
						c-0.044,0.106-0.091,0.199-0.137,0.292c-0.144,0.321-0.321,0.621-0.51,0.925c-0.113,0.218-0.634,0.981-0.762,1.134
						c-0.407,0.546-0.841,1.029-1.324,1.483l4.9-4.33c2.179-2.038,3.627-4.931,4.128-8.602c1.827-13.386-9.665-32.198-25.673-42.016
						c-3.399-2.096-6.73-3.605-9.893-4.566c-7.605-2.308-14.178-1.411-18.229,2.401L374.19,289.625z"/>
				</g>
				<path style="fill:#FFFFFF;" d="M405.732,332.504c0.899,1.95,2.573,3.895,4.596,5.138c0.698,0.43,1.382,0.74,2.032,0.938
					c1.562,0.474,2.912,0.29,3.746-0.494l0.007-0.007c0.099-0.093,0.188-0.193,0.272-0.305c0.026-0.031,0.052-0.068,0.073-0.107
					c0.03-0.038,0.06-0.081,0.083-0.126c0.039-0.062,0.075-0.124,0.105-0.19c0.01-0.019,0.019-0.038,0.028-0.06
					c0.022-0.039,0.038-0.079,0.056-0.122c0.017-0.038,0.03-0.077,0.043-0.117c0.025-0.062,0.045-0.123,0.064-0.186
					c0.002-0.003,0.003-0.009,0.005-0.015c0.026-0.082,0.045-0.168,0.064-0.256c0.019-0.089,0.036-0.183,0.048-0.275
					c0.135-0.989-0.086-2.123-0.575-3.261c-0.87-2.028-2.595-4.075-4.697-5.367c-0.701-0.43-1.385-0.74-2.032-0.938
					c-0.402-0.123-0.791-0.201-1.158-0.236c-0.106-0.009-0.209-0.016-0.311-0.02c-0.153-0.004-0.303,0-0.447,0.008
					c-0.262,0.019-0.511,0.062-0.741,0.133c-0.061,0.017-0.118,0.036-0.177,0.058c-0.057,0.022-0.113,0.043-0.17,0.068
					c-0.056,0.024-0.109,0.051-0.162,0.077c-0.05,0.026-0.1,0.054-0.147,0.082c-0.01,0.005-0.02,0.01-0.027,0.017
					c-0.048,0.025-0.091,0.055-0.132,0.087c-0.049,0.031-0.097,0.067-0.141,0.106c-0.045,0.036-0.089,0.074-0.133,0.115
					c-0.447,0.421-0.745,1.013-0.848,1.767C404.914,330.068,405.172,331.289,405.732,332.504z"/>
				<path style="fill:#FFFFFF;" d="M379.147,315.356c0.899,1.95,2.573,3.895,4.596,5.138c0.698,0.43,1.382,0.74,2.032,0.938
					c1.562,0.474,2.912,0.29,3.746-0.494l0.007-0.007c0.099-0.093,0.188-0.193,0.272-0.305c0.026-0.031,0.052-0.068,0.073-0.107
					c0.031-0.038,0.06-0.081,0.083-0.126c0.039-0.062,0.075-0.124,0.105-0.19c0.01-0.019,0.019-0.038,0.028-0.06
					c0.022-0.039,0.038-0.079,0.056-0.122c0.017-0.038,0.03-0.077,0.043-0.117c0.025-0.062,0.045-0.123,0.064-0.186
					c0.002-0.003,0.003-0.009,0.005-0.015c0.026-0.082,0.045-0.168,0.064-0.256c0.019-0.089,0.036-0.182,0.048-0.275
					c0.135-0.989-0.086-2.123-0.575-3.261c-0.87-2.028-2.595-4.075-4.697-5.367c-0.701-0.43-1.385-0.74-2.032-0.938
					c-0.402-0.123-0.791-0.201-1.158-0.236c-0.106-0.009-0.209-0.016-0.311-0.02c-0.153-0.004-0.303,0-0.447,0.008
					c-0.262,0.019-0.511,0.062-0.741,0.133c-0.061,0.017-0.118,0.036-0.177,0.058c-0.057,0.022-0.114,0.043-0.17,0.068
					c-0.056,0.024-0.109,0.051-0.162,0.077c-0.05,0.026-0.1,0.054-0.147,0.082c-0.01,0.005-0.02,0.01-0.027,0.017
					c-0.048,0.025-0.091,0.055-0.132,0.087c-0.049,0.031-0.097,0.067-0.141,0.106c-0.045,0.036-0.089,0.074-0.133,0.115
					c-0.447,0.421-0.745,1.013-0.848,1.766C378.328,312.921,378.587,314.141,379.147,315.356z"/>
				<g>
					<path style="fill:#323954;" d="M392.849,315.633c-0.714-0.217-1.373-0.37-1.977-0.473c-3.347-0.57-5.013,0.399-5.119,0.468
						c-0.589,0.36-0.472,1.387,0.267,2.293c0.262,0.321,0.567,0.584,0.876,0.77c0.199,0.122,0.399,0.215,0.592,0.273
						c0.361,0.11,0.696,0.101,0.948-0.053c0.071-0.043,1.252-0.682,3.674-0.261c0.456,0.079,0.956,0.197,1.501,0.362
						c1.342,0.408,2.957,1.112,4.857,2.278c2.906,1.787,4.922,3.696,6.281,5.305c1.78,2.107,2.432,3.696,2.478,3.811
						c0.339,0.858,1.173,1.637,1.959,1.877c0.1,0.03,0.199,0.052,0.296,0.064c0.856,0.104,1.26-0.574,0.892-1.536
						c-0.066-0.175-1.06-2.707-3.793-5.875c-1.771-2.053-4.272-4.372-7.724-6.49C396.538,317.021,394.538,316.147,392.849,315.633z"
						/>
				</g>
			</g>
		</g>
		<g>
			<g style="enable-background:new    ;">
				<g>
					
						<path style="fill:#FFAD4A;stroke:#323954;stroke-width:0.9581;stroke-linecap:round;stroke-linejoin:round;stroke-miterlimit:10;" d="
						M295.975,339.231c0.159,0.499,0.329,0.986,0.533,1.44c0.068,0.181,0.147,0.363,0.238,0.544
						c0.068,0.181,0.159,0.351,0.261,0.521c0.045,0.102,0.102,0.215,0.17,0.317c0.102,0.181,0.204,0.363,0.329,0.544
						c0.147,0.238,0.306,0.476,0.476,0.691c0.193,0.261,0.385,0.499,0.59,0.726c0.204,0.227,0.408,0.431,0.623,0.623
						c0.125,0.125,0.261,0.238,0.397,0.34c0.102,0.091,0.204,0.17,0.306,0.249c0.125,0.091,0.249,0.181,0.374,0.261
						c0.125,0.091,0.249,0.17,0.374,0.238c3.639,2.244,8.706,1.848,14.034-1.224c1.814-1.054,3.673-2.415,5.509-4.104
						c10.293-9.443,16.153-25.279,13.07-35.356c-0.986-3.242-2.766-5.498-5.078-6.745c-0.272-0.159-0.556-0.295-0.839-0.408
						c-0.238-0.102-0.476-0.193-0.714-0.272c-0.011,0-0.023,0-0.045-0.011c-0.238-0.079-0.487-0.147-0.748-0.204
						c-0.023-0.011-0.045-0.011-0.079-0.023c-0.238-0.057-0.487-0.102-0.737-0.136c-0.023,0-0.045-0.011-0.068-0.011
						c-0.249-0.045-0.51-0.068-0.771-0.091c-2.902-0.215-6.201,0.657-9.613,2.619c-1.825,1.054-3.673,2.426-5.509,4.104
						C298.764,313.306,292.903,329.142,295.975,339.231z"/>
				</g>
				<g>
					<path style="fill:#323954;" d="M309.44,336.647c-0.253,0.686-0.315,1.581,0.273,2.028c0.215,0.169,0.5,0.265,0.836,0.277
						c0.331,0.022,0.678-0.045,1.009-0.189c0.093-0.04,0.185-0.087,0.278-0.141c0.735-0.425,1.226-1.174,1.456-1.787l4.253-11.504
						l-3.85-0.185L309.44,336.647z"/>
				</g>
				<g>
					<path style="fill:#323954;" d="M320.03,308.022l-4.256,11.503l3.848,0.187l4.253-11.504c0.253-0.679,0.315-1.574-0.267-2.025
						c-0.215-0.169-0.505-0.261-0.836-0.277c-0.331-0.022-0.684,0.048-1.009,0.189c-0.098,0.041-0.193,0.089-0.283,0.141
						C320.747,306.659,320.256,307.417,320.03,308.022z"/>
				</g>
				<g>
					<path style="fill:#323954;" d="M307.155,319.362c-0.362,0.209-0.765,0.582-1.148,1.181c-0.254,0.393-0.479,0.856-0.663,1.342
						c-0.178,0.483-0.293,0.949-0.338,1.355c-0.113,1.091,0.346,1.506,0.816,1.528l7.872,0.379l3.85,0.185l7.871,0.379
						c0.209,0.013,0.464-0.048,0.748-0.212c0.365-0.211,0.764-0.588,1.151-1.184c0.248-0.39,0.479-0.856,0.657-1.339
						c0.178-0.483,0.299-0.952,0.338-1.355c0.113-1.091-0.346-1.506-0.816-1.528l-7.871-0.381l-3.848-0.186l-7.874-0.382
						C307.697,319.135,307.438,319.198,307.155,319.362z"/>
				</g>
				<g>
					
						<path style="fill:#FFAD4A;stroke:#323954;stroke-width:0.9581;stroke-linecap:round;stroke-linejoin:round;stroke-miterlimit:10;" d="
						M291.629,336.784c0.952,3.129,4.868,6.55,7.067,7.82l2.04,1.19c-0.034-0.023-0.057-0.045-0.091-0.068
						c-0.125-0.068-0.249-0.147-0.374-0.238c-0.125-0.079-0.249-0.17-0.374-0.261c-0.102-0.079-0.204-0.159-0.306-0.249
						c-0.136-0.102-0.272-0.215-0.397-0.34c-0.215-0.193-0.419-0.397-0.623-0.623c-0.204-0.227-0.408-0.476-0.59-0.726
						c-0.17-0.215-0.329-0.453-0.476-0.691c-0.125-0.181-0.227-0.363-0.329-0.544c-0.068-0.102-0.125-0.215-0.17-0.317
						c-0.102-0.17-0.193-0.34-0.261-0.521c-0.091-0.181-0.17-0.363-0.238-0.544c-0.204-0.453-0.374-0.941-0.533-1.44
						c-3.072-10.089,2.789-25.925,13.082-35.368c1.836-1.678,3.684-3.049,5.509-4.104c3.412-1.961,6.711-2.834,9.613-2.619
						c0.261,0.023,0.521,0.045,0.771,0.091c0.023,0,0.045,0.011,0.068,0.011c0.249,0.034,0.499,0.079,0.737,0.136
						c0.034,0.011,0.057,0.011,0.079,0.023c0.261,0.057,0.51,0.125,0.748,0.204c0.023,0.011,0.034,0.011,0.045,0.011
						c0.249,0.079,0.476,0.17,0.714,0.272c0.283,0.113,0.567,0.249,0.839,0.408c0.079,0.034,0.159,0.079,0.238,0.125l-4.358-2.447
						c-3.627-2.108-8.615-1.678-13.852,1.338c-1.814,1.054-3.661,2.415-5.498,4.104C294.406,310.86,288.557,326.696,291.629,336.784
						z"/>
				</g>
			</g>
		</g>
		<g>
			<g style="enable-background:new    ;">
				<g>
					<path style="fill:#B8C0C9;stroke:#323954;stroke-miterlimit:10;" d="M309.506,408.457c0.027,0.36,0.067,0.706,0.12,1.052
						c0.067,0.506,0.147,0.999,0.24,1.492c0.067,0.386,0.146,0.772,0.24,1.145c0.133,0.679,0.306,1.332,0.506,1.971
						c0.146,0.479,0.306,0.946,0.479,1.412c0,0.027,0,0.04,0.013,0.053c0.173,0.466,0.36,0.919,0.559,1.372
						c0.186,0.426,0.373,0.839,0.586,1.239c0.013,0.04,0.027,0.067,0.053,0.093c0.213,0.426,0.453,0.839,0.706,1.239
						c0.2,0.333,0.4,0.653,0.639,0.959c0.04,0.093,0.12,0.2,0.2,0.293c0.226,0.32,0.466,0.626,0.719,0.919
						c0.027,0.04,0.067,0.093,0.12,0.133c0.226,0.28,0.466,0.546,0.733,0.812c0.08,0.093,0.16,0.173,0.253,0.253
						c0.173,0.173,0.36,0.346,0.546,0.506c0.213,0.2,0.413,0.373,0.639,0.546c0.106,0.107,0.226,0.186,0.346,0.266
						c0.226,0.186,0.466,0.36,0.719,0.519c0.16,0.12,0.32,0.226,0.479,0.306c0.293,0.2,0.599,0.373,0.919,0.546
						c6.38,3.396,14.611,2.171,22.815-2.557c8.564-4.955,17.101-13.718,23.507-25.066c12.546-22.215,12.147-45.856-0.906-52.808
						c-5.647-3.023-12.733-2.411-19.978,1.052c-0.946,0.466-1.891,0.959-2.837,1.505c-8.564,4.941-17.114,13.718-23.521,25.066
						C311.331,385.296,308.387,398.269,309.506,408.457z"/>
				</g>
				<g>
					<path style="fill:#323954;" d="M330.538,392.277l-12.986,14.357c1.146,0.989,2.883,1.119,4.777,0.528
						c1.978-0.617,4.127-2.017,5.959-4.044C331.88,399.156,332.879,394.308,330.538,392.277z"/>
				</g>
				<g>
					<path style="fill:#323954;" d="M347.063,353.772l-4.624,18.772c1.481,0.332,3.073-0.379,4.461-1.798
						c1.448-1.48,2.675-3.729,3.328-6.37C351.504,359.183,350.091,354.435,347.063,353.772z"/>
				</g>
				<g>
					<path style="fill:#B8C0C9;stroke:#323954;stroke-miterlimit:10;" d="M312.454,421.686l6.162,3.5
						c-0.08-0.053-0.147-0.093-0.213-0.146c-0.16-0.08-0.32-0.186-0.479-0.306c-0.253-0.16-0.493-0.333-0.719-0.519
						c-0.12-0.08-0.24-0.16-0.346-0.266c-0.213-0.16-0.426-0.346-0.639-0.546c-0.186-0.16-0.373-0.333-0.546-0.506
						c-0.093-0.08-0.173-0.16-0.253-0.253c-0.266-0.266-0.506-0.533-0.733-0.812c-0.053-0.04-0.093-0.093-0.12-0.133
						c-0.266-0.293-0.506-0.599-0.719-0.919c-0.08-0.093-0.16-0.2-0.2-0.293c-0.24-0.306-0.44-0.626-0.639-0.959
						c-0.253-0.4-0.493-0.812-0.706-1.239c-0.027-0.027-0.04-0.053-0.053-0.093c-0.213-0.4-0.4-0.812-0.586-1.239
						c-0.213-0.44-0.386-0.892-0.559-1.372c-0.013-0.013-0.013-0.027-0.013-0.053c-0.173-0.453-0.333-0.932-0.479-1.412
						c-0.2-0.639-0.373-1.292-0.506-1.971c-0.093-0.373-0.173-0.759-0.24-1.145c-0.093-0.493-0.173-0.986-0.24-1.492
						c-0.053-0.346-0.106-0.693-0.12-1.052c-1.119-10.189,1.825-23.161,8.897-35.681c6.406-11.348,14.957-20.125,23.521-25.066
						c0.946-0.546,1.891-1.039,2.837-1.505c7.245-3.463,14.331-4.076,19.978-1.052l0.519,0.28l-6.361-3.606
						c-0.173-0.107-0.333-0.2-0.506-0.293c-6.38-3.396-14.611-2.171-22.815,2.557c-8.577,4.954-17.114,13.732-23.521,25.066
						C299.668,391.08,299.908,414.387,312.454,421.686z"/>
				</g>
				<g>
					<path style="fill:#FFFFFF;" d="M353.825,377.069c0.006,0.079,0.015,0.156,0.026,0.232c0.015,0.112,0.032,0.221,0.053,0.329
						c0.015,0.085,0.032,0.171,0.053,0.253c0.029,0.15,0.068,0.294,0.112,0.435c0.032,0.106,0.068,0.209,0.106,0.312
						c0,0.006,0,0.009,0.003,0.012c0.038,0.103,0.079,0.203,0.124,0.303c0.041,0.094,0.082,0.185,0.129,0.274
						c0.003,0.009,0.006,0.015,0.012,0.021c0.047,0.094,0.1,0.185,0.156,0.274c0.044,0.074,0.088,0.144,0.141,0.212
						c0.009,0.021,0.026,0.044,0.044,0.065c0.05,0.071,0.103,0.138,0.159,0.203c0.006,0.009,0.015,0.021,0.026,0.029
						c0.05,0.062,0.103,0.121,0.162,0.179c0.018,0.021,0.035,0.038,0.056,0.056c0.038,0.038,0.079,0.076,0.121,0.112
						c0.047,0.044,0.091,0.082,0.141,0.121c0.023,0.024,0.05,0.041,0.076,0.059c0.05,0.041,0.103,0.079,0.159,0.115
						c0.035,0.026,0.071,0.05,0.106,0.068c0.065,0.044,0.132,0.082,0.203,0.121c1.409,0.75,3.226,0.479,5.038-0.565
						c1.891-1.094,3.776-3.029,5.191-5.535c2.771-4.906,2.682-10.126-0.2-11.662c-1.247-0.668-2.812-0.532-4.412,0.232
						c-0.209,0.103-0.418,0.212-0.626,0.332c-1.891,1.091-3.779,3.029-5.194,5.535C354.228,371.954,353.578,374.819,353.825,377.069
						z"/>
				</g>
				<g>
					<path style="fill:#FFFFFF;" d="M333.675,413.512c0.006,0.079,0.015,0.156,0.026,0.232c0.015,0.112,0.032,0.221,0.053,0.329
						c0.015,0.085,0.032,0.171,0.053,0.253c0.029,0.15,0.068,0.294,0.112,0.435c0.032,0.106,0.068,0.209,0.106,0.312
						c0,0.006,0,0.009,0.003,0.012c0.038,0.103,0.079,0.203,0.124,0.303c0.041,0.094,0.082,0.185,0.129,0.274
						c0.003,0.009,0.006,0.015,0.012,0.021c0.047,0.094,0.1,0.185,0.156,0.274c0.044,0.074,0.088,0.144,0.141,0.212
						c0.009,0.021,0.026,0.044,0.044,0.065c0.05,0.071,0.103,0.138,0.159,0.203c0.006,0.009,0.015,0.021,0.026,0.029
						c0.05,0.062,0.103,0.121,0.162,0.179c0.018,0.021,0.035,0.038,0.056,0.056c0.038,0.038,0.079,0.076,0.121,0.112
						c0.047,0.044,0.091,0.082,0.141,0.121c0.023,0.024,0.05,0.041,0.076,0.059c0.05,0.041,0.103,0.079,0.159,0.115
						c0.035,0.026,0.071,0.05,0.106,0.068c0.065,0.044,0.132,0.082,0.203,0.121c1.409,0.75,3.226,0.479,5.038-0.565
						c1.891-1.094,3.776-3.029,5.191-5.535c2.771-4.906,2.682-10.126-0.2-11.662c-1.247-0.668-2.812-0.532-4.412,0.232
						c-0.209,0.103-0.418,0.212-0.626,0.332c-1.891,1.091-3.779,3.029-5.194,5.535C334.078,408.398,333.428,411.262,333.675,413.512
						z"/>
				</g>
				<g>
					<path style="fill:#323954;" d="M356.407,373.116c-1.104,0.638-2.53,1.618-4.139,3.098c-2.353,2.165-5.098,5.398-7.807,10.191
						c-2.586,4.58-3.95,8.481-4.642,11.578c-1.139,5.098-0.46,8.021-0.413,8.213c0.222,0.882,1.007,1.106,1.871,0.607
						c0.154-0.089,0.311-0.201,0.467-0.336c0.367-0.314,0.679-0.713,0.923-1.144c0.441-0.779,0.649-1.675,0.477-2.35
						c-0.029-0.13-0.466-2.188,0.371-5.877c0.546-2.405,1.634-5.504,3.729-9.213c2.277-4.033,4.528-6.626,6.366-8.276
						c1.108-0.995,2.066-1.646,2.789-2.064c0.848-0.49,1.373-0.657,1.437-0.677c0.151-0.046,0.302-0.113,0.45-0.199
						c0.867-0.501,1.661-1.63,1.878-2.758c0.248-1.326-0.36-2.172-1.389-1.884C358.677,372.055,357.795,372.314,356.407,373.116z"/>
				</g>
			</g>
		</g>
		<g>
			<g style="enable-background:new    ;">
				<g>
					<path style="fill:#B8C0C9;stroke:#323954;stroke-miterlimit:10;" d="M350.485,276.533c0.09,0.291,0.191,0.573,0.302,0.844
						c0.07,0.181,0.151,0.352,0.231,0.513c0.01,0.02,0.02,0.05,0.03,0.07c0.101,0.201,0.211,0.392,0.322,0.573
						c0.05,0.09,0.111,0.191,0.181,0.281c0.06,0.09,0.131,0.191,0.191,0.271c0.131,0.181,0.261,0.352,0.412,0.503
						c0.241,0.271,0.503,0.523,0.784,0.734c0.121,0.101,0.251,0.191,0.382,0.281c0.02,0.01,0.04,0.02,0.07,0.04
						c2.332,1.477,5.598,1.236,9.035-0.744c1.166-0.673,2.342-1.538,3.518-2.613c3.216-2.945,5.749-6.874,7.276-10.864
						c1.588-4.171,2.08-8.422,1.075-11.718c-0.633-2.07-1.779-3.507-3.256-4.301c-0.332-0.191-0.683-0.342-1.055-0.442
						c-0.141-0.05-0.291-0.09-0.432-0.121c-0.02-0.01-0.05-0.02-0.07-0.02c-0.151-0.04-0.291-0.06-0.442-0.08
						c-0.01-0.01-0.03-0.01-0.05-0.01c-0.171-0.03-0.342-0.05-0.513-0.06c-0.181-0.01-0.362-0.02-0.543-0.02
						c-0.241,0-0.482,0.01-0.734,0.04c-0.533,0.04-1.095,0.141-1.668,0.301c-0.201,0.05-0.392,0.111-0.603,0.181
						c-0.834,0.271-1.698,0.663-2.573,1.166c-1.166,0.673-2.342,1.548-3.518,2.623c-3.538,3.236-6.251,7.668-7.698,12.06
						C349.892,269.8,349.581,273.559,350.485,276.533z"/>
				</g>
				<g>
					<path style="fill:#323954;" d="M359.085,274.887c-0.128,0.346-0.152,0.673-0.075,0.929c0.135,0.448,0.547,0.535,0.783,0.54
						c0.298,0.017,0.571-0.063,0.812-0.203c0.442-0.255,0.774-0.707,0.938-1.144l2.717-7.349l-2.458-0.119L359.085,274.887z"/>
				</g>
				<g>
					<path style="fill:#323954;" d="M365.846,256.609l-2.718,7.348l2.457,0.119l2.714-7.342c0.128-0.34,0.157-0.676,0.08-0.932
						c-0.14-0.445-0.552-0.532-0.783-0.54c-0.299-0.016-0.575,0.064-0.817,0.204C366.337,255.72,366.007,256.173,365.846,256.609z"
						/>
				</g>
				<g>
					<path style="fill:#B8C0C9;stroke:#323954;stroke-miterlimit:10;" d="M346.152,274.299c0.603,2,4.664,4.858,6.071,5.672
						l1.095,0.633c-0.131-0.09-0.261-0.181-0.382-0.281c-0.281-0.211-0.543-0.462-0.784-0.734c-0.151-0.151-0.281-0.322-0.412-0.503
						c-0.06-0.08-0.131-0.181-0.191-0.271c-0.07-0.09-0.131-0.191-0.181-0.281c-0.121-0.181-0.221-0.372-0.322-0.573
						c-0.01-0.02-0.02-0.05-0.03-0.07c-0.08-0.161-0.161-0.332-0.231-0.513c-0.111-0.271-0.211-0.553-0.302-0.844
						c-0.904-2.975-0.593-6.734,0.653-10.512c1.447-4.392,4.161-8.824,7.698-12.06c1.176-1.075,2.352-1.95,3.518-2.623
						c0.874-0.503,1.739-0.894,2.573-1.166c0.211-0.07,0.402-0.131,0.603-0.181c0.573-0.161,1.136-0.261,1.668-0.301
						c0.251-0.03,0.492-0.04,0.734-0.04c0.181,0,0.362,0.01,0.543,0.02c0.171,0.01,0.342,0.03,0.513,0.06c0.02,0,0.04,0,0.05,0.01
						c0.151,0.02,0.291,0.04,0.442,0.08c0.02,0,0.05,0.01,0.07,0.02c0.141,0.03,0.291,0.07,0.432,0.121
						c0.372,0.101,0.724,0.251,1.055,0.442c0.05,0.02,0.111,0.05,0.161,0.08l-4.333-2.235c-2.322-1.347-5.507-1.065-8.844,0.854
						c-1.166,0.673-2.352,1.548-3.518,2.623C347.931,257.756,344.182,267.866,346.152,274.299z"/>
				</g>
				<g>
					<path style="fill:#323954;" d="M356.777,267.297l5.025,0.241l2.46,0.121l5.025,0.241c0.145,0.016,0.306-0.032,0.474-0.129
						c0.096-0.056,0.193-0.129,0.289-0.217c0.458-0.418,0.74-1.053,0.868-1.399c0.45-1.23,0.153-1.817-0.306-1.833l-5.033-0.249
						l-2.452-0.113l-5.025-0.249c-0.145-0.008-0.306,0.04-0.474,0.137c-0.402,0.233-0.844,0.756-1.158,1.608
						C356.021,266.694,356.311,267.281,356.777,267.297z"/>
				</g>
			</g>
		</g>
		<g>
			<g style="enable-background:new    ;">
				<g>
					
						<path style="fill:#FFAD4A;stroke:#323954;stroke-width:0.9581;stroke-linecap:round;stroke-linejoin:round;stroke-miterlimit:10;" d="
						M425.441,403.648c-0.159,0.499-0.329,0.986-0.533,1.44c-0.068,0.181-0.147,0.363-0.238,0.544
						c-0.068,0.181-0.159,0.351-0.261,0.521c-0.045,0.102-0.102,0.215-0.17,0.317c-0.102,0.181-0.204,0.363-0.329,0.544
						c-0.147,0.238-0.306,0.476-0.476,0.691c-0.193,0.261-0.385,0.499-0.59,0.725c-0.204,0.227-0.408,0.431-0.623,0.623
						c-0.125,0.125-0.261,0.238-0.397,0.34c-0.102,0.091-0.204,0.17-0.306,0.249c-0.125,0.091-0.249,0.181-0.374,0.261
						c-0.125,0.091-0.249,0.17-0.374,0.238c-3.639,2.244-8.706,1.848-14.034-1.224c-1.814-1.054-3.673-2.415-5.509-4.104
						c-10.293-9.443-16.153-25.279-13.07-35.356c0.986-3.242,2.766-5.498,5.078-6.745c0.272-0.159,0.556-0.295,0.839-0.408
						c0.238-0.102,0.476-0.193,0.714-0.272c0.011,0,0.023,0,0.045-0.011c0.238-0.079,0.487-0.147,0.748-0.204
						c0.023-0.011,0.045-0.011,0.079-0.023c0.238-0.057,0.487-0.102,0.737-0.136c0.023,0,0.045-0.011,0.068-0.011
						c0.249-0.045,0.51-0.068,0.771-0.091c2.902-0.215,6.201,0.658,9.613,2.619c1.825,1.054,3.673,2.426,5.509,4.104
						C422.652,377.723,428.513,393.56,425.441,403.648z"/>
				</g>
				<g>
					<path style="fill:#323954;" d="M411.975,401.064c0.253,0.686,0.314,1.581-0.273,2.028c-0.215,0.169-0.5,0.265-0.836,0.277
						c-0.331,0.022-0.678-0.045-1.009-0.189c-0.093-0.04-0.185-0.087-0.278-0.141c-0.735-0.425-1.226-1.174-1.456-1.787
						l-4.253-11.504l3.85-0.185L411.975,401.064z"/>
				</g>
				<g>
					<path style="fill:#323954;" d="M401.386,372.439l4.256,11.503l-3.848,0.186l-4.253-11.504
						c-0.253-0.679-0.315-1.574,0.267-2.025c0.215-0.169,0.505-0.261,0.836-0.277c0.331-0.022,0.684,0.048,1.009,0.189
						c0.098,0.041,0.193,0.089,0.283,0.141C400.669,371.076,401.16,371.834,401.386,372.439z"/>
				</g>
				<g>
					<path style="fill:#323954;" d="M414.26,383.779c0.362,0.209,0.765,0.582,1.148,1.181c0.254,0.393,0.479,0.856,0.663,1.342
						c0.178,0.483,0.293,0.949,0.338,1.355c0.113,1.091-0.346,1.506-0.816,1.528l-7.872,0.379l-3.85,0.185L396,390.128
						c-0.209,0.013-0.464-0.048-0.748-0.212c-0.365-0.211-0.764-0.588-1.151-1.184c-0.248-0.39-0.479-0.856-0.657-1.339
						c-0.178-0.483-0.299-0.952-0.338-1.355c-0.113-1.091,0.346-1.506,0.816-1.528l7.871-0.381l3.848-0.187l7.874-0.382
						C413.719,383.552,413.977,383.615,414.26,383.779z"/>
				</g>
				<g>
					
						<path style="fill:#FFAD4A;stroke:#323954;stroke-width:0.9581;stroke-linecap:round;stroke-linejoin:round;stroke-miterlimit:10;" d="
						M429.787,401.202c-0.952,3.129-4.868,6.55-7.067,7.82l-2.04,1.19c0.034-0.023,0.057-0.045,0.091-0.068
						c0.125-0.068,0.249-0.147,0.374-0.238c0.125-0.079,0.249-0.17,0.374-0.261c0.102-0.079,0.204-0.159,0.306-0.249
						c0.136-0.102,0.272-0.215,0.397-0.34c0.215-0.193,0.419-0.397,0.623-0.623c0.204-0.227,0.408-0.476,0.59-0.725
						c0.17-0.215,0.329-0.453,0.476-0.691c0.125-0.181,0.227-0.363,0.329-0.544c0.068-0.102,0.125-0.215,0.17-0.317
						c0.102-0.17,0.193-0.34,0.261-0.521c0.091-0.181,0.17-0.363,0.238-0.544c0.204-0.453,0.374-0.941,0.533-1.44
						c3.072-10.089-2.789-25.925-13.082-35.368c-1.836-1.678-3.684-3.049-5.509-4.104c-3.412-1.961-6.711-2.834-9.613-2.619
						c-0.261,0.023-0.521,0.045-0.771,0.091c-0.023,0-0.045,0.011-0.068,0.011c-0.249,0.034-0.499,0.079-0.737,0.136
						c-0.034,0.011-0.057,0.011-0.079,0.023c-0.261,0.057-0.51,0.125-0.748,0.204c-0.023,0.011-0.034,0.011-0.045,0.011
						c-0.249,0.079-0.476,0.17-0.714,0.272c-0.283,0.113-0.567,0.249-0.839,0.408c-0.079,0.034-0.159,0.079-0.238,0.125l4.358-2.447
						c3.627-2.108,8.615-1.678,13.852,1.338c1.814,1.054,3.661,2.415,5.498,4.104C427.01,375.277,432.859,391.113,429.787,401.202z"
						/>
				</g>
			</g>
		</g>
	</g>
	<g>
		<polygon style="fill:#FFAD4A;" points="362.129,186.437 386.908,192.029 379.361,167.774 		"/>
		<polygon style="fill:#FFAD4A;" points="318.517,199.385 320.645,192.878 313.945,194.288 		"/>
		<polygon style="fill:#FFAD4A;" points="82.438,358.174 80.094,386.621 105.901,374.427 		"/>
		<polygon style="fill:#FFAD4A;" points="263.08,87.309 260.905,56.735 235.515,73.906 		"/>
		<polygon style="fill:#FFAD4A;" points="297.571,422.487 285.859,442.772 309.282,442.772 		"/>
		<polygon style="fill:#FFAD4A;" points="409.256,221.589 429.881,209.883 409.431,197.874 		"/>
		<polygon style="fill:#B8C0C9;" points="381.121,161.901 389.069,152.896 377.296,150.516 		"/>
		<polygon style="fill:#B8C0C9;" points="350.124,183.823 343.81,186.567 349.343,190.663 		"/>
		<polygon style="fill:#B8C0C9;" points="396.564,247.589 402.169,265.384 414.778,251.632 		"/>
		<polygon style="fill:#B8C0C9;" points="429.798,266.846 448.462,259.909 433.123,247.214 		"/>
		<polygon style="fill:#B8C0C9;" points="227.919,52.393 248.323,57.251 242.328,37.151 		"/>
		<polygon style="fill:#B8C0C9;" points="281.667,53.818 285.503,38.524 270.339,42.849 		"/>
		<polygon style="fill:#B8C0C9;" points="283.703,86.596 292.086,84.107 285.738,78.091 		"/>
		<polygon style="fill:#B8C0C9;" points="77.261,342.317 95.868,337.595 82.475,323.843 		"/>
		<polygon style="fill:#B8C0C9;" points="69.528,349.636 62.123,362.462 76.933,362.462 		"/>
		<polygon style="fill:#B8C0C9;" points="269.188,445.34 276.354,441.882 269.777,437.405 		"/>
		<polygon style="fill:#B8C0C9;" points="282.564,450.429 278.766,458.417 287.582,457.711 		"/>
	</g>
</g>
</svg>
